<svg xmlns="http://www.w3.org/2000/svg" width="993" height="967"><rect width="100%" height="100%" fill="white" /><path d="M 407 365 L 407 364 L 407 364 L 407 367 L 407 376 L 407 409 L 407 457 L 407 520 L 405 589 L 400 637 L 393 663 L 383 684 L 370 698 L 357 701 L 347 700 L 337 688 L 331 662 L 331 630 L 342 591 L 364 550 L 407 508 L 474 455 L 553 397 L 622 347 L 658 321 L 680 303 L 698 287 L 703 281 L 705 275 L 704 269 L 702 264 L 697 260 L 691 257 L 686 257 L 682 257 L 675 268 L 661 302 L 639 367 L 616 442 L 598 503 L 587 542 L 580 565 L 575 576 L 572 578 L 564 570 L 550 548 L 534 506 L 525 453 L 524 415 L 524 394 L 526 379 L 537 373 L 566 383 L 617 419 L 680 491 L 744 601 L 828 839 L 828 842 L 828 842 L 827 839" fill="none" stroke="#000000" stroke-width="10" /></svg>